<svg id="Capa_1" enable-background="new 0 0 501.548 501.548" height="512" viewBox="0 0 501.548 501.548" width="512" xmlns="http://www.w3.org/2000/svg"><path d="m486.798 253.09c0 11.521 13.806 20.268 12.273 31.368-16.54 119.79-119.332 212.039-243.67 212.039-135.5 0-245.412-109.554-245.993-244.917-.002-.359 8.473-10.073 10.348-15.01 11.211-29.523-7.623-28.386-2.489-47.998 16.52-63.098 57.31-116.393 111.822-149.141 9.062-5.444 55.503-10.32 65.275-14.579 10.325-4.5-15.981-8.311-4.975-11.374 21-5.845 43.137-8.97 66.012-8.97 113.319 0 208.741 76.622 237.285 180.883 5.678 20.738-5.888 45.159-5.888 67.699z" fill="#c0e0ff"/><path d="m492.687 185.335h-37.788c-4.824 0-8.735 3.911-8.735 8.736v.868c0 4.824 3.911 8.735 8.735 8.735h18.773c5.064 0 9.169 4.105 9.169 9.17 0 4.521-3.275 8.269-7.581 9.023h-58.376c-6.796 0-12.306 5.51-12.306 12.306s5.509 12.306 12.306 12.306h52.672c5.244 0 9.495 4.251 9.495 9.495s-4.251 9.495-9.495 9.495h-19.75c-4.825 0-8.736 3.911-8.736 8.735v1.519c0 4.824 3.911 8.736 8.736 8.736h49.249c1.631-11.417 2.493-23.083 2.493-34.951 0-22.208-3.324-43.718-8.861-64.173z" fill="#fff"/><path d="m67.608 242.786v-1.529c0-4.857-3.937-8.794-8.794-8.794h-19.881c-5.279 0-9.558-4.28-9.558-9.558 0-5.279 4.279-9.558 9.558-9.558h53.023c6.842 0 12.388-5.546 12.388-12.387s-5.546-12.387-12.388-12.387h-74.908c-4.987 19.482-7.642 39.899-7.642 60.936 0 .693.021 1.381.026 2.073h49.382c4.857-.002 8.794-3.939 8.794-8.796z" fill="#fff"/><path d="m298.325 451.314c0 7.209 5.844 13.053 13.053 13.053h62.843c13.465-7.525 26.15-16.274 37.903-26.106h-100.746c-7.209 0-13.053 5.844-13.053 13.053z" fill="#fff"/><path d="m261.231 26.507c0-7.18-5.82-13-13-13h-58.834c-21.414 5.975-41.645 14.783-60.263 26h119.097c7.18 0 13-5.82 13-13z" fill="#fff"/><path d="m366.883 170.892 45.535 146.027-1.941 21.432 13.109 14.384 32.035 102.734c3.545 11.368.491 23.765-7.93 32.185-15.129 15.129-40.554 11.456-50.783-7.336l-47.987-88.162-1.678-20.944-15.958-11.458-54.02-99.245z" fill="#5e5e5e"/><path d="m326.148 130.158-146.027-45.536-21.835-.873-13.98-10.295-102.735-32.036c-11.368-3.545-23.765-.491-32.185 7.93-15.129 15.129-11.456 40.554 7.336 50.783l88.162 47.987 19.787 1.137 12.614 16.499 99.245 54.02z" fill="#5e5e5e"/><path d="m422.011 455.217-88.424-162.454c-6.761-12.421-4.537-27.809 5.462-37.809l41.2-41.2-13.366-42.862-89.617 89.617 54.02 99.245 16.096 9.874 1.541 22.528 47.987 88.162c.309.567.633 1.119.968 1.658.115.184.238.359.356.541.227.348.453.697.69 1.033.15.212.308.415.462.623.216.291.432.584.656.866.174.218.354.427.532.639.216.257.432.514.654.763.194.217.393.426.592.636.217.229.434.457.657.679.214.213.431.419.65.625.217.204.434.405.656.602.233.207.468.408.706.607.216.18.433.357.653.531.252.2.506.396.764.588.211.157.424.309.639.461.274.193.548.384.827.567.202.133.407.261.612.39.298.187.596.372.9.549.185.108.373.209.561.313.328.182.657.364.991.534.154.079.311.151.467.227.372.182.744.363 1.121.53.082.036.166.068.249.104 1.99.86 4.057 1.518 6.167 1.961.001 0 .003.001.004.001 10.093 2.117 21.147-.587 29.249-8.689 4.545-4.545 7.51-10.252 8.734-16.326-13.129 2.594-27.373-3.176-34.416-16.114z" fill="#333"/><path d="m25.712 40.613c-6.075 1.224-11.781 4.19-16.326 8.734-15.129 15.129-11.456 40.554 7.336 50.783l88.162 47.987 20.788 4.138 11.614 13.499 99.245 54.02 25.102-25.102-219.81-119.643c-12.938-7.042-18.708-21.286-16.111-34.416z" fill="#333"/><path d="m159.95 397.378-60.288-60.288 244.628-254.561 11.157-4.488 5.518-12.864 14.794-15.395 11.511-4.857 5.189-12.522 7.975-8.299c2.589-2.695 5.435-5.062 8.475-7.085 11.656-7.756 54.205 6.55 60.516 12.552 7.17 6.82 18.633 46.789 11.028 58.173-2.012 3.012-4.362 5.831-7.033 8.397l-8.783 8.44-11.562 3.267-5.817 13.434-15.391 14.79-13.388 4.06-3.991 12.64z" fill="#7f7f7f"/><path d="m487.792 48.557c-3.462-15.58-13.989-28.411-28.125-34.987 1.528 3.285 2.719 6.761 3.525 10.388 3.84 17.282-1.607 35.317-14.372 47.584l-313.47 301.237 24.599 24.599 254.541-244.606 4.799-10.456 12.58-6.245 15.391-14.79 6.168-12.811 11.21-3.89 8.783-8.44c12.764-12.266 18.211-30.3 14.371-47.583z" fill="#5e5e5e"/><path d="m135.351 372.779 24.599 24.599 30.331-29.147-17.869-31.068z" fill="#333"/><path d="m199.121 463.005-37.489-96.953c-5.153-13.326-15.688-23.861-29.014-29.014l-96.953-37.489c-6.999-2.706-14.663-2.258-21.175.926 4.44 21.517 11.695 42.003 21.355 61.066l54.381 33.988c5.229 3.268 9.646 7.685 12.914 12.914l37.202 59.523c17.155 9.096 35.511 16.225 54.775 21.078 5.818-7.296 7.423-17.199 4.004-26.039z" fill="#5e5e5e"/><path d="m199.06 482.185c-11.39 4.409-25.03.522-32.02-10.662l-48.838-78.141c-3.268-5.229-7.685-9.646-12.914-12.914l-78.141-48.838c-2.148-1.342-4.021-2.934-5.623-4.704 3.91 11.967 8.706 23.533 14.322 34.614l54.381 33.988c.934.584 1.832 1.216 2.712 1.871 1.584 1.179 3.088 2.458 4.48 3.85 1.083 1.083 2.105 2.228 3.06 3.428.955 1.201 1.844 2.457 2.661 3.764l37.202 59.523c17.155 9.096 35.511 16.225 54.775 21.078 1.432-1.796 2.605-3.75 3.515-5.807.054-.123.103-.247.156-.371.095-.223.182-.452.272-.679z" fill="#333"/><path d="m412.419 316.92-81.133 42.835 17.637 32.401 74.664-39.42z" fill="#fdd33a"/><path d="m180.121 84.622-42.835 81.133-32.402-17.637 39.421-74.664z" fill="#fdd33a"/><path d="m379.034 376.259-17.637-32.402-30.111 15.897 6.796 12.485 10.841 19.917z" fill="#e0af24"/><path d="m120.782 118.007-15.898 30.111 16.788 9.138 15.614 8.499 15.898-30.112z" fill="#e0af24"/><g fill="#fdd33a"><path d="m393.013 49.996c4.686-4.686 4.686-12.354 0-17.039l-.553-.553-16.7 17.379.214.214c4.685 4.685 12.353 4.685 17.039-.001z"/><path d="m462.655 102.599c-4.686-4.686-12.354-4.686-17.04 0-4.686 4.686-4.686 12.354 0 17.039l1.643 1.643 17.379-16.7z"/><path d="m360.883 82.126c4.657-4.657 4.681-12.256.082-16.949l-16.675 17.352c4.714 4.265 12.05 4.14 16.593-.403z"/><path d="m413.486 134.729c-4.686 4.686-4.686 12.354 0 17.039l1.004 1.004 17.379-16.7-1.343-1.343c-4.687-4.686-12.355-4.686-17.04 0z"/><path d="m432.951 20.042 1.335.468c20.009 7.01 36.883 24.153 43.514 44.207 2.616 7.911 3.453 15.753 2.633 23.014 7.604-11.383 10.395-25.507 7.359-39.174-4.193-18.872-18.748-33.721-37.532-38.29l-1.254-.305c-13.922-3.387-28.428-.679-40.084 7.076 7.577-.849 15.784.115 24.029 3.004z"/></g></svg>